<?xml version="1.0" encoding="UTF-8"?>
<svg version="1.1" xmlns="http://www.w3.org/2000/svg" width="16" height="16">
<path d="M0 0 C1.0725 -0.01675781 2.145 -0.03351562 3.25 -0.05078125 C4.1575 0.06910156 5.065 0.18898438 6 0.3125 C8.24234009 3.67601013 8.27098215 4.93560056 8.25 8.875 C8.25515625 9.84566406 8.2603125 10.81632813 8.265625 11.81640625 C8 14.3125 8 14.3125 6 16.3125 C3.25 16.578125 3.25 16.578125 0 16.5625 C-1.60875 16.57023437 -1.60875 16.57023437 -3.25 16.578125 C-6 16.3125 -6 16.3125 -8 14.3125 C-8.265625 11.5625 -8.265625 11.5625 -8.25 8.3125 C-8.25515625 7.24 -8.2603125 6.1675 -8.265625 5.0625 C-7.74326257 -0.34548754 -4.6844301 0.01689097 0 0 Z " fill="#263879" transform="translate(8,-0.3125)"/>
<path d="M0 0 C3 3 3 3 3.36328125 5.62890625 C3.34652344 6.59699219 3.32976563 7.56507813 3.3125 8.5625 C3.30863281 9.53316406 3.30476563 10.50382813 3.30078125 11.50390625 C3 14 3 14 1 16 C-1.8203125 16.1953125 -1.8203125 16.1953125 -5.125 16.125 C-6.22070312 16.10695313 -7.31640625 16.08890625 -8.4453125 16.0703125 C-9.28835938 16.04710938 -10.13140625 16.02390625 -11 16 C-11.33 15.34 -11.66 14.68 -12 14 C-8.3321148 12.03810791 -5.12751449 10.60698743 -1 10 C-0.67 6.7 -0.34 3.4 0 0 Z " fill="#182563" transform="translate(13,0)"/>
<path d="M0 0 C0.66 0 1.32 0 2 0 C2.33 0.66 2.66 1.32 3 2 C3.33 1.34 3.66 0.68 4 0 C5.65 0 7.3 0 9 0 C9.33 1.65 9.66 3.3 10 5 C7.23735711 5.59732819 4.83967231 6 2 6 C1.34 4.02 0.68 2.04 0 0 Z " fill="#9EA5C2" transform="translate(3,5)"/>
</svg>
